<svg width="557" height="280" viewBox="0 0 557 280" fill="none" xmlns="http://www.w3.org/2000/svg">
<rect x="1.24365" y="0.5" width="555.256" height="279" rx="19.5" fill="white" stroke="#EFF0F6"/>
<path d="M32.9786 26.6172C32.9322 26.183 32.7366 25.8449 32.3919 25.603C32.0505 25.361 31.6064 25.2401 31.0595 25.2401C30.6751 25.2401 30.3453 25.2981 30.0702 25.4141C29.7951 25.5301 29.5846 25.6875 29.4388 25.8864C29.293 26.0852 29.2184 26.3123 29.2151 26.5675C29.2151 26.7796 29.2631 26.9635 29.3592 27.1193C29.4587 27.2751 29.5929 27.4077 29.7619 27.517C29.931 27.6231 30.1182 27.7126 30.3237 27.7855C30.5292 27.8584 30.7364 27.9197 30.9452 27.9695L31.8997 28.2081C32.2842 28.2976 32.6537 28.4186 33.0084 28.571C33.3663 28.7235 33.6862 28.9157 33.9679 29.1477C34.2529 29.3797 34.4783 29.6598 34.644 29.9879C34.8098 30.3161 34.8926 30.7005 34.8926 31.1413C34.8926 31.7379 34.7402 32.2633 34.4352 32.7173C34.1303 33.1681 33.6895 33.5211 33.1128 33.7763C32.5394 34.0282 31.845 34.1541 31.0297 34.1541C30.2376 34.1541 29.5498 34.0315 28.9665 33.7862C28.3865 33.541 27.9324 33.183 27.6043 32.7124C27.2795 32.2417 27.1038 31.6683 27.0773 30.9922H28.8919C28.9184 31.3468 29.0278 31.6418 29.22 31.8771C29.4123 32.1125 29.6625 32.2881 29.9707 32.4041C30.2823 32.5201 30.6303 32.5781 31.0148 32.5781C31.4158 32.5781 31.7671 32.5185 32.0688 32.3991C32.3737 32.2765 32.6123 32.1075 32.7847 31.892C32.957 31.6733 33.0448 31.4181 33.0482 31.1264C33.0448 30.8613 32.967 30.6425 32.8145 30.4702C32.662 30.2945 32.4483 30.1487 32.1732 30.0327C31.9014 29.9134 31.5832 29.8073 31.2186 29.7145L30.0602 29.4162C29.2217 29.2008 28.5588 28.8743 28.0716 28.4368C27.5877 27.996 27.3457 27.411 27.3457 26.6818C27.3457 26.0819 27.5082 25.5566 27.833 25.1058C28.1611 24.6551 28.6069 24.3054 29.1703 24.0568C29.7338 23.8049 30.3718 23.679 31.0844 23.679C31.8069 23.679 32.44 23.8049 32.9835 24.0568C33.5304 24.3054 33.9596 24.6518 34.2712 25.0959C34.5827 25.5367 34.7435 26.0438 34.7534 26.6172H32.9786ZM40.2706 26.3636V27.7557H35.8807V26.3636H40.2706ZM36.9645 24.5341H38.7642V31.7031C38.7642 31.9451 38.8007 32.1307 38.8736 32.2599C38.9499 32.3859 39.0493 32.4721 39.1719 32.5185C39.2946 32.5649 39.4304 32.5881 39.5796 32.5881C39.6923 32.5881 39.795 32.5798 39.8878 32.5632C39.9839 32.5466 40.0569 32.5317 40.1066 32.5185L40.4098 33.9254C40.3137 33.9586 40.1762 33.995 39.9972 34.0348C39.8215 34.0746 39.6061 34.0978 39.3509 34.1044C38.9001 34.1177 38.4941 34.0497 38.1329 33.9006C37.7716 33.7481 37.4849 33.5128 37.2728 33.1946C37.064 32.8764 36.9612 32.4787 36.9645 32.0014V24.5341ZM41.7758 34V26.3636H43.5208V27.6364H43.6004C43.7396 27.1955 43.9782 26.8558 44.3163 26.6172C44.6577 26.3752 45.0471 26.2543 45.4846 26.2543C45.584 26.2543 45.6951 26.2592 45.8177 26.2692C45.9436 26.2758 46.048 26.2874 46.1309 26.304V27.9595C46.0547 27.933 45.9337 27.9098 45.768 27.8899C45.6056 27.8667 45.4481 27.8551 45.2957 27.8551C44.9676 27.8551 44.6726 27.9264 44.4107 28.0689C44.1522 28.2081 43.9484 28.402 43.7992 28.6506C43.6501 28.8991 43.5755 29.1858 43.5755 29.5107V34H41.7758ZM50.3431 34.1491C49.5973 34.1491 48.951 33.9851 48.4042 33.657C47.8573 33.3288 47.433 32.8698 47.1314 32.2798C46.8331 31.6899 46.684 31.0005 46.684 30.2116C46.684 29.4228 46.8331 28.7318 47.1314 28.1385C47.433 27.5452 47.8573 27.0845 48.4042 26.7564C48.951 26.4283 49.5973 26.2642 50.3431 26.2642C51.0888 26.2642 51.7351 26.4283 52.282 26.7564C52.8289 27.0845 53.2515 27.5452 53.5498 28.1385C53.8514 28.7318 54.0022 29.4228 54.0022 30.2116C54.0022 31.0005 53.8514 31.6899 53.5498 32.2798C53.2515 32.8698 52.8289 33.3288 52.282 33.657C51.7351 33.9851 51.0888 34.1491 50.3431 34.1491ZM50.353 32.7074C50.7574 32.7074 51.0955 32.5964 51.3672 32.3743C51.639 32.1489 51.8412 31.8473 51.9738 31.4695C52.1097 31.0916 52.1776 30.6707 52.1776 30.2067C52.1776 29.7393 52.1097 29.3168 51.9738 28.9389C51.8412 28.5578 51.639 28.2545 51.3672 28.0291C51.0955 27.8037 50.7574 27.6911 50.353 27.6911C49.9387 27.6911 49.594 27.8037 49.3189 28.0291C49.0472 28.2545 48.8433 28.5578 48.7074 28.9389C48.5749 29.3168 48.5086 29.7393 48.5086 30.2067C48.5086 30.6707 48.5749 31.0916 48.7074 31.4695C48.8433 31.8473 49.0472 32.1489 49.3189 32.3743C49.594 32.5964 49.9387 32.7074 50.353 32.7074ZM57.3294 29.5256V34H55.5297V26.3636H57.2499V27.6612H57.3394C57.515 27.2337 57.7951 26.8939 58.1796 26.642C58.5673 26.3902 59.0463 26.2642 59.6163 26.2642C60.1433 26.2642 60.6024 26.3769 60.9935 26.6023C61.3879 26.8277 61.6928 27.1541 61.9082 27.5817C62.127 28.0092 62.2347 28.5279 62.2314 29.1378V34H60.4317V29.4162C60.4317 28.9058 60.2991 28.5064 60.034 28.218C59.7721 27.9297 59.4092 27.7855 58.9452 27.7855C58.6303 27.7855 58.3502 27.8551 58.105 27.9943C57.863 28.1302 57.6725 28.3274 57.5332 28.5859C57.3974 28.8445 57.3294 29.1577 57.3294 29.5256ZM67.382 37.0227C66.7357 37.0227 66.1805 36.9349 65.7165 36.7592C65.2525 36.5869 64.8796 36.3549 64.5979 36.0632C64.3162 35.7715 64.1206 35.4484 64.0112 35.0938L65.632 34.701C65.7049 34.8501 65.8109 34.9976 65.9502 35.1435C66.0894 35.2926 66.2766 35.4152 66.5119 35.5114C66.7506 35.6108 67.0505 35.6605 67.4118 35.6605C67.9222 35.6605 68.3448 35.5362 68.6796 35.2876C69.0143 35.0424 69.1817 34.638 69.1817 34.0746V32.6278H69.0922C68.9994 32.8134 68.8635 33.004 68.6845 33.1996C68.5089 33.3951 68.2752 33.5592 67.9835 33.6918C67.6952 33.8243 67.3323 33.8906 66.8948 33.8906C66.3081 33.8906 65.7761 33.7531 65.2989 33.478C64.8249 33.1996 64.4471 32.7853 64.1653 32.2351C63.8869 31.6816 63.7477 30.9889 63.7477 30.157C63.7477 29.3184 63.8869 28.6108 64.1653 28.0341C64.4471 27.4541 64.8266 27.0149 65.3038 26.7166C65.7811 26.415 66.3131 26.2642 66.8997 26.2642C67.3472 26.2642 67.7151 26.3404 68.0034 26.4929C68.2951 26.642 68.5271 26.8227 68.6994 27.0348C68.8718 27.2436 69.0027 27.4408 69.0922 27.6264H69.1916V26.3636H70.9665V34.1243C70.9665 34.7772 70.8107 35.3175 70.4992 35.745C70.1876 36.1726 69.7617 36.4924 69.2215 36.7045C68.6812 36.9167 68.068 37.0227 67.382 37.0227ZM67.3969 32.4787C67.778 32.4787 68.1028 32.3859 68.3713 32.2003C68.6398 32.0147 68.8436 31.7479 68.9828 31.3999C69.122 31.0518 69.1916 30.6342 69.1916 30.147C69.1916 29.6664 69.122 29.2455 68.9828 28.8842C68.8469 28.523 68.6448 28.2429 68.3763 28.044C68.1111 27.8419 67.7847 27.7408 67.3969 27.7408C66.9958 27.7408 66.6611 27.8452 66.3926 28.054C66.1242 28.2628 65.922 28.5495 65.7861 28.9141C65.6502 29.2753 65.5823 29.6863 65.5823 30.147C65.5823 30.6143 65.6502 31.0237 65.7861 31.375C65.9253 31.723 66.1291 31.9948 66.3976 32.1903C66.6694 32.3826 67.0025 32.4787 67.3969 32.4787ZM76.1916 34.1491C75.426 34.1491 74.7648 33.9901 74.208 33.6719C73.6545 33.3504 73.2286 32.8963 72.9303 32.3097C72.632 31.7197 72.4828 31.0253 72.4828 30.2266C72.4828 29.4411 72.632 28.7517 72.9303 28.1584C73.2319 27.5618 73.6528 27.0978 74.193 26.7663C74.7333 26.4316 75.368 26.2642 76.0972 26.2642C76.5678 26.2642 77.0119 26.3404 77.4296 26.4929C77.8505 26.642 78.2217 26.8741 78.5432 27.1889C78.868 27.5038 79.1232 27.9048 79.3088 28.392C79.4944 28.8759 79.5872 29.4527 79.5872 30.1222V30.674H73.328V29.4609H77.8621C77.8588 29.1162 77.7842 28.8097 77.6384 28.5412C77.4925 28.2694 77.2887 28.0556 77.0269 27.8999C76.7683 27.7441 76.4667 27.6662 76.122 27.6662C75.7541 27.6662 75.431 27.7557 75.1526 27.9347C74.8742 28.1103 74.6571 28.3423 74.5013 28.6307C74.3488 28.9157 74.2709 29.2289 74.2676 29.5703V30.6293C74.2676 31.0734 74.3488 31.4545 74.5112 31.7727C74.6736 32.0876 74.9007 32.3295 75.1923 32.4986C75.484 32.6643 75.8254 32.7472 76.2165 32.7472C76.4783 32.7472 76.7153 32.7107 76.9274 32.6378C77.1395 32.5616 77.3235 32.4505 77.4793 32.3047C77.635 32.1589 77.7527 31.9782 77.8323 31.7628L79.5127 31.9517C79.4066 32.3958 79.2044 32.7836 78.9061 33.1151C78.6111 33.4432 78.2333 33.6984 77.7726 33.8807C77.3119 34.0597 76.7849 34.1491 76.1916 34.1491ZM87.1453 28.3821L85.5047 28.5611C85.4583 28.3954 85.3771 28.2396 85.2611 28.0938C85.1484 27.9479 84.9959 27.8303 84.8037 27.7408C84.6114 27.6513 84.3761 27.6065 84.0977 27.6065C83.7232 27.6065 83.4083 27.6877 83.1531 27.8501C82.9012 28.0125 82.7769 28.223 82.7802 28.4815C82.7769 28.7036 82.8581 28.8842 83.0238 29.0234C83.1929 29.1626 83.4713 29.277 83.8591 29.3665L85.1616 29.6449C85.8842 29.8007 86.4211 30.0476 86.7724 30.3857C87.1271 30.7237 87.306 31.1662 87.3093 31.7131C87.306 32.1937 87.1652 32.6179 86.8868 32.9858C86.6117 33.3504 86.2289 33.6354 85.7383 33.8409C85.2478 34.0464 84.6843 34.1491 84.048 34.1491C83.1133 34.1491 82.361 33.9536 81.7909 33.5625C81.2208 33.1681 80.8811 32.6196 80.7717 31.9169L82.5267 31.7479C82.6062 32.0926 82.7753 32.3527 83.0338 32.5284C83.2923 32.7041 83.6287 32.7919 84.043 32.7919C84.4706 32.7919 84.8136 32.7041 85.0721 32.5284C85.334 32.3527 85.4649 32.1357 85.4649 31.8771C85.4649 31.6584 85.3804 31.4777 85.2113 31.3352C85.0456 31.1927 84.7871 31.0833 84.4358 31.0071L83.1332 30.7337C82.4007 30.5812 81.8588 30.3243 81.5075 29.9631C81.1562 29.5985 80.9822 29.1378 80.9855 28.581C80.9822 28.1103 81.1098 27.7027 81.3683 27.358C81.6301 27.0099 81.9931 26.7415 82.4571 26.5526C82.9244 26.3603 83.463 26.2642 84.0728 26.2642C84.9677 26.2642 85.672 26.4548 86.1858 26.8359C86.7028 27.2171 87.0227 27.7325 87.1453 28.3821ZM92.6066 26.3636V27.7557H88.2167V26.3636H92.6066ZM89.3005 24.5341H91.1002V31.7031C91.1002 31.9451 91.1366 32.1307 91.2096 32.2599C91.2858 32.3859 91.3852 32.4721 91.5079 32.5185C91.6305 32.5649 91.7664 32.5881 91.9155 32.5881C92.0282 32.5881 92.131 32.5798 92.2238 32.5632C92.3199 32.5466 92.3928 32.5317 92.4425 32.5185L92.7458 33.9254C92.6497 33.9586 92.5121 33.995 92.3331 34.0348C92.1575 34.0746 91.942 34.0978 91.6868 34.1044C91.2361 34.1177 90.8301 34.0497 90.4688 33.9006C90.1075 33.7481 89.8208 33.5128 89.6087 33.1946C89.3999 32.8764 89.2972 32.4787 89.3005 32.0014V24.5341ZM97.2165 25.3643V23.8182H105.34V25.3643H102.193V34H100.364V25.3643H97.2165ZM109.05 34.1491C108.304 34.1491 107.658 33.9851 107.111 33.657C106.564 33.3288 106.14 32.8698 105.838 32.2798C105.54 31.6899 105.391 31.0005 105.391 30.2116C105.391 29.4228 105.54 28.7318 105.838 28.1385C106.14 27.5452 106.564 27.0845 107.111 26.7564C107.658 26.4283 108.304 26.2642 109.05 26.2642C109.796 26.2642 110.442 26.4283 110.989 26.7564C111.536 27.0845 111.958 27.5452 112.257 28.1385C112.558 28.7318 112.709 29.4228 112.709 30.2116C112.709 31.0005 112.558 31.6899 112.257 32.2798C111.958 32.8698 111.536 33.3288 110.989 33.657C110.442 33.9851 109.796 34.1491 109.05 34.1491ZM109.06 32.7074C109.464 32.7074 109.802 32.5964 110.074 32.3743C110.346 32.1489 110.548 31.8473 110.681 31.4695C110.817 31.0916 110.885 30.6707 110.885 30.2067C110.885 29.7393 110.817 29.3168 110.681 28.9389C110.548 28.5578 110.346 28.2545 110.074 28.0291C109.802 27.8037 109.464 27.6911 109.06 27.6911C108.646 27.6911 108.301 27.8037 108.026 28.0291C107.754 28.2545 107.55 28.5578 107.414 28.9389C107.282 29.3168 107.216 29.7393 107.216 30.2067C107.216 30.6707 107.282 31.0916 107.414 31.4695C107.55 31.8473 107.754 32.1489 108.026 32.3743C108.301 32.5964 108.646 32.7074 109.06 32.7074ZM114.237 36.8636V26.3636H116.007V27.6264H116.111C116.204 27.4408 116.335 27.2436 116.504 27.0348C116.673 26.8227 116.902 26.642 117.19 26.4929C117.478 26.3404 117.846 26.2642 118.294 26.2642C118.884 26.2642 119.415 26.415 119.889 26.7166C120.367 27.0149 120.745 27.4574 121.023 28.044C121.305 28.6274 121.446 29.3433 121.446 30.1918C121.446 31.0303 121.308 31.7429 121.033 32.3295C120.758 32.9162 120.383 33.3636 119.909 33.6719C119.435 33.9801 118.898 34.1342 118.299 34.1342C117.861 34.1342 117.498 34.0613 117.21 33.9155C116.921 33.7696 116.689 33.594 116.514 33.3885C116.341 33.1797 116.207 32.9825 116.111 32.7969H116.036V36.8636H114.237ZM116.002 30.1818C116.002 30.6757 116.071 31.1082 116.21 31.4794C116.353 31.8506 116.557 32.1406 116.822 32.3494C117.09 32.5549 117.415 32.6577 117.796 32.6577C118.194 32.6577 118.527 32.5516 118.796 32.3395C119.064 32.1241 119.266 31.8307 119.402 31.4595C119.541 31.085 119.611 30.6591 119.611 30.1818C119.611 29.7079 119.543 29.2869 119.407 28.919C119.271 28.5511 119.069 28.2628 118.801 28.054C118.532 27.8452 118.197 27.7408 117.796 27.7408C117.412 27.7408 117.085 27.8419 116.817 28.044C116.549 28.2462 116.345 28.5296 116.205 28.8942C116.07 29.2588 116.002 29.688 116.002 30.1818ZM122.987 34V26.3636H124.786V34H122.987ZM123.892 25.2798C123.607 25.2798 123.361 25.1854 123.156 24.9964C122.95 24.8042 122.848 24.5739 122.848 24.3054C122.848 24.0336 122.95 23.8033 123.156 23.6143C123.361 23.4221 123.607 23.326 123.892 23.326C124.18 23.326 124.425 23.4221 124.627 23.6143C124.833 23.8033 124.936 24.0336 124.936 24.3054C124.936 24.5739 124.833 24.8042 124.627 24.9964C124.425 25.1854 124.18 25.2798 123.892 25.2798ZM129.968 34.1491C129.206 34.1491 128.551 33.9818 128.004 33.647C127.461 33.3123 127.041 32.8499 126.746 32.2599C126.455 31.6667 126.309 30.9839 126.309 30.2116C126.309 29.4361 126.458 28.7517 126.756 28.1584C127.055 27.5618 127.476 27.0978 128.019 26.7663C128.566 26.4316 129.212 26.2642 129.958 26.2642C130.578 26.2642 131.126 26.3786 131.604 26.6072C132.084 26.8326 132.467 27.1525 132.752 27.5668C133.037 27.9777 133.2 28.4583 133.239 29.0085H131.519C131.45 28.6406 131.284 28.334 131.022 28.0888C130.764 27.8402 130.417 27.7159 129.983 27.7159C129.615 27.7159 129.292 27.8153 129.014 28.0142C128.735 28.2098 128.518 28.4915 128.362 28.8594C128.21 29.2273 128.134 29.6681 128.134 30.1818C128.134 30.7022 128.21 31.1496 128.362 31.5241C128.515 31.8954 128.729 32.1821 129.004 32.3842C129.282 32.5831 129.608 32.6825 129.983 32.6825C130.248 32.6825 130.485 32.6328 130.694 32.5334C130.906 32.4306 131.083 32.2831 131.226 32.0909C131.368 31.8987 131.466 31.665 131.519 31.3899H133.239C133.196 31.9302 133.037 32.4091 132.762 32.8267C132.487 33.241 132.112 33.5658 131.639 33.8011C131.165 34.0331 130.608 34.1491 129.968 34.1491ZM140.753 28.3821L139.112 28.5611C139.066 28.3954 138.984 28.2396 138.868 28.0938C138.756 27.9479 138.603 27.8303 138.411 27.7408C138.219 27.6513 137.984 27.6065 137.705 27.6065C137.331 27.6065 137.016 27.6877 136.761 27.8501C136.509 28.0125 136.384 28.223 136.388 28.4815C136.384 28.7036 136.466 28.8842 136.631 29.0234C136.8 29.1626 137.079 29.277 137.466 29.3665L138.769 29.6449C139.492 29.8007 140.029 30.0476 140.38 30.3857C140.734 30.7237 140.913 31.1662 140.917 31.7131C140.913 32.1937 140.773 32.6179 140.494 32.9858C140.219 33.3504 139.836 33.6354 139.346 33.8409C138.855 34.0464 138.292 34.1491 137.655 34.1491C136.721 34.1491 135.968 33.9536 135.398 33.5625C134.828 33.1681 134.489 32.6196 134.379 31.9169L136.134 31.7479C136.214 32.0926 136.383 32.3527 136.641 32.5284C136.9 32.7041 137.236 32.7919 137.65 32.7919C138.078 32.7919 138.421 32.7041 138.68 32.5284C138.941 32.3527 139.072 32.1357 139.072 31.8771C139.072 31.6584 138.988 31.4777 138.819 31.3352C138.653 31.1927 138.395 31.0833 138.043 31.0071L136.741 30.7337C136.008 30.5812 135.466 30.3243 135.115 29.9631C134.764 29.5985 134.59 29.1378 134.593 28.581C134.59 28.1103 134.717 27.7027 134.976 27.358C135.238 27.0099 135.6 26.7415 136.064 26.5526C136.532 26.3603 137.07 26.2642 137.68 26.2642C138.575 26.2642 139.279 26.4548 139.793 26.8359C140.31 27.2171 140.63 27.7325 140.753 28.3821Z" fill="black" fill-opacity="0.5"/>
<g opacity="0.2">
<rect x="98.0963" y="221" width="321.642" height="10" rx="5" fill="url(#paint0_linear_2_3666)"/>
</g>
<rect x="98.0961" y="221" width="152.279" height="10" rx="5" fill="url(#paint1_linear_2_3666)"/>
<defs>
<linearGradient id="paint0_linear_2_3666" x1="369.884" y1="226.417" x2="144.734" y2="226.417" gradientUnits="userSpaceOnUse">
<stop stop-color="#2FEA9B"/>
<stop offset="1" stop-color="#7FDD53"/>
</linearGradient>
<linearGradient id="paint1_linear_2_3666" x1="226.772" y1="226.417" x2="120.177" y2="226.417" gradientUnits="userSpaceOnUse">
<stop stop-color="#2FEA9B"/>
<stop offset="1" stop-color="#7FDD53"/>
</linearGradient>
</defs>
</svg>
